<svg width="47" height="47" viewBox="0 0 47 47" fill="none" xmlns="http://www.w3.org/2000/svg">
<path d="M12.2085 37.8073C12.5801 36.9126 12.9219 36.0023 13.2328 35.0778M28.2452 41.1298C28.783 39.6131 29.26 38.0676 29.6734 36.4962C30.0484 35.0705 30.3712 33.6237 30.6393 32.1579M38.5574 33.7876C39.2935 29.8201 39.6783 25.7293 39.6783 21.5485C39.6783 12.6226 32.4425 5.38672 23.5166 5.38672C20.9804 5.38672 18.5806 5.97093 16.4444 7.01212M6.38672 29.6789C7.01944 27.0723 7.35478 24.3497 7.35478 21.5485C7.35478 18.0327 8.47742 14.7791 10.3838 12.1266M23.5174 21.5485C23.5174 27.1252 22.6136 32.4906 20.9445 37.5067C20.5151 38.7973 20.0349 40.0649 19.5063 41.3069M15.033 27.418C15.2985 25.4996 15.4357 23.5401 15.4357 21.5485C15.4357 17.0856 19.0536 13.4676 23.5166 13.4676C27.9795 13.4676 31.5975 17.0856 31.5975 21.5485C31.5975 22.5317 31.5732 23.5091 31.5254 24.4805" stroke="white" stroke-width="2.9375" stroke-linecap="round" stroke-linejoin="round"/>
</svg>
