<svg width="437" height="140" viewBox="0 0 437 140" fill="none" xmlns="http://www.w3.org/2000/svg">
<g clip-path="url(#clip0_433_298)">
<path fill-rule="evenodd" clip-rule="evenodd" d="M86.0749 48.9414H31L47.3185 64.4708V85.8238L86.0749 48.9414Z" fill="white"/>
<path fill-rule="evenodd" clip-rule="evenodd" d="M57.5176 91.6441H112.593L96.274 76.1147V54.7617L57.5176 91.6441Z" fill="white"/>
<path d="M168.071 90.4076C165.258 91.8938 161.754 92.6369 157.561 92.6369C152.147 92.6369 147.812 90.8942 144.557 87.4087C141.301 83.9231 139.673 79.3495 139.673 73.6877C139.673 67.6013 141.505 62.6827 145.167 58.9318C148.83 55.1808 153.474 53.3054 159.1 53.3054C162.71 53.3054 165.7 53.8273 168.071 54.8712V59.6218C165.346 58.1002 162.338 57.3394 159.047 57.3394C154.677 57.3394 151.13 58.7991 148.405 61.7184C145.698 64.6378 144.344 68.5391 144.344 73.4223C144.344 78.0579 145.609 81.7557 148.14 84.5159C150.687 87.2583 154.022 88.6295 158.145 88.6295C161.967 88.6295 165.275 87.7802 168.071 86.0817V90.4076ZM200.555 53.9423L188.002 77.9341V92H183.543V78.0402L171.309 53.9423H176.378L184.897 71.1399C185.003 71.3523 185.313 72.1307 185.826 73.4754H185.905C186.082 72.8739 186.418 72.0954 186.914 71.1399L195.831 53.9423H200.555ZM205.863 92V53.9423H216.691C219.982 53.9423 222.592 54.7474 224.52 56.3574C226.449 57.9675 227.413 60.0641 227.413 62.6473C227.413 64.8058 226.829 66.6813 225.661 68.2737C224.494 69.866 222.884 70.9984 220.831 71.6707V71.7769C223.397 72.0777 225.449 73.0508 226.988 74.6962C228.528 76.324 229.297 78.4472 229.297 81.0657C229.297 84.3212 228.13 86.9575 225.794 88.9745C223.459 90.9915 220.513 92 216.957 92H205.863ZM210.322 57.9763V70.2641H214.886C217.328 70.2641 219.248 69.6803 220.646 68.5125C222.043 67.3271 222.742 65.664 222.742 63.5231C222.742 59.8253 220.309 57.9763 215.444 57.9763H210.322ZM210.322 74.2716V87.966H216.373C218.991 87.966 221.017 87.3467 222.45 86.1082C223.901 84.8697 224.626 83.1712 224.626 81.0126C224.626 76.5186 221.566 74.2716 215.444 74.2716H210.322ZM257.19 92H237.02V53.9423H256.341V57.9763H241.479V70.6357H255.226V74.6432H241.479V87.966H257.19V92ZM291.798 92H286.49L280.121 81.3311C279.537 80.3403 278.971 79.4999 278.422 78.8099C277.874 78.1021 277.307 77.5271 276.724 77.0848C276.157 76.6425 275.538 76.324 274.866 76.1294C274.211 75.9171 273.468 75.8109 272.636 75.8109H268.974V92H264.515V53.9423H275.874C277.537 53.9423 279.068 54.1546 280.466 54.5793C281.881 54.9862 283.102 55.6143 284.128 56.4636C285.172 57.3128 285.986 58.3744 286.57 59.6483C287.154 60.9045 287.445 62.3819 287.445 64.0804C287.445 65.4074 287.242 66.6282 286.835 67.7429C286.446 68.8398 285.88 69.8218 285.137 70.6888C284.411 71.5557 283.526 72.2988 282.483 72.9181C281.456 73.5196 280.297 73.9885 279.006 74.3247V74.4308C279.643 74.7139 280.191 75.0412 280.651 75.4128C281.129 75.7667 281.58 76.1913 282.005 76.6867C282.429 77.1821 282.845 77.7483 283.252 78.3852C283.677 79.0045 284.146 79.7299 284.659 80.5615L291.798 92ZM268.974 57.9763V71.7769H275.025C276.14 71.7769 277.166 71.6088 278.104 71.2726C279.059 70.9365 279.882 70.4588 280.572 69.8395C281.262 69.2026 281.801 68.4329 282.191 67.5306C282.58 66.6105 282.775 65.5843 282.775 64.452C282.775 62.4173 282.111 60.8338 280.784 59.7014C279.475 58.5514 277.573 57.9763 275.078 57.9763H268.974ZM325.662 92H321.204V74.6432H301.511V92H297.053V53.9423H301.511V70.6357H321.204V53.9423H325.662V92ZM363.481 76.6071C363.481 87.2937 358.66 92.6369 349.017 92.6369C339.781 92.6369 335.164 87.4971 335.164 77.2175V53.9423H339.622V76.9256C339.622 84.7282 342.913 88.6295 349.495 88.6295C355.847 88.6295 359.023 84.8609 359.023 77.3236V53.9423H363.481V76.6071ZM373.009 92V53.9423H383.837C387.128 53.9423 389.738 54.7474 391.666 56.3574C393.595 57.9675 394.559 60.0641 394.559 62.6473C394.559 64.8058 393.975 66.6813 392.807 68.2737C391.64 69.866 390.03 70.9984 387.977 71.6707V71.7769C390.543 72.0777 392.595 73.0508 394.134 74.6962C395.674 76.324 396.443 78.4472 396.443 81.0657C396.443 84.3212 395.276 86.9575 392.94 88.9745C390.605 90.9915 387.659 92 384.102 92H373.009ZM377.468 57.9763V70.2641H382.032C384.474 70.2641 386.394 69.6803 387.791 68.5125C389.189 67.3271 389.888 65.664 389.888 63.5231C389.888 59.8253 387.455 57.9763 382.59 57.9763H377.468ZM377.468 74.2716V87.966H383.519C386.137 87.966 388.163 87.3467 389.596 86.1082C391.047 84.8697 391.772 83.1712 391.772 81.0126C391.772 76.5186 388.711 74.2716 382.59 74.2716H377.468Z" fill="white"/>
</g>
<defs>
<clipPath id="clip0_433_298">
<rect width="437" height="140" fill="white"/>
</clipPath>
</defs>
</svg>
