<svg width="287" height="54" viewBox="0 0 287 54" fill="none" xmlns="http://www.w3.org/2000/svg">
<path fill-rule="evenodd" clip-rule="evenodd" d="M30.1765 20.1172H0L8.94118 29.0584V41.3525L30.1765 20.1172Z" fill="white"/>
<path fill-rule="evenodd" clip-rule="evenodd" d="M14.5293 44.704H44.7058L35.7646 35.7629V23.4688L14.5293 44.704Z" fill="white"/>
<path d="M75.9621 43.6144C74.3424 44.4701 72.3254 44.898 69.9111 44.898C66.7939 44.898 64.2981 43.8946 62.4237 41.8878C60.5493 39.8809 59.6121 37.2476 59.6121 33.9878C59.6121 30.4835 60.6665 27.6516 62.7752 25.492C64.8838 23.3323 67.5579 22.2525 70.7973 22.2525C72.8755 22.2525 74.597 22.553 75.9621 23.1541V25.8892C74.3933 25.0132 72.6615 24.5751 70.7668 24.5751C68.2506 24.5751 66.2081 25.4156 64.6394 27.0964C63.0808 28.7772 62.3015 31.0234 62.3015 33.835C62.3015 36.504 63.0298 38.633 64.4866 40.2222C65.9535 41.8012 67.8737 42.5906 70.2472 42.5906C72.4476 42.5906 74.3526 42.1017 75.9621 41.1237V43.6144ZM94.6652 22.6193L87.4376 36.4327V44.5312H84.8705V36.4938L77.8263 22.6193H80.7448L85.6498 32.5209C85.7109 32.6432 85.8892 33.0914 86.1846 33.8656H86.2305C86.3323 33.5192 86.5259 33.071 86.8111 32.5209L91.9453 22.6193H94.6652ZM97.7213 44.5312V22.6193H103.956C105.85 22.6193 107.353 23.0828 108.463 24.0098C109.574 24.9368 110.129 26.1439 110.129 27.6312C110.129 28.874 109.793 29.9538 109.12 30.8706C108.448 31.7875 107.521 32.4394 106.339 32.8265V32.8876C107.816 33.0608 108.998 33.6211 109.884 34.5685C110.771 35.5057 111.214 36.7281 111.214 38.2358C111.214 40.1101 110.541 41.628 109.197 42.7893C107.852 43.9506 106.156 44.5312 104.108 44.5312H97.7213ZM100.288 24.9419V32.0167H102.917C104.322 32.0167 105.428 31.6805 106.232 31.0082C107.037 30.3256 107.44 29.3681 107.44 28.1355C107.44 26.0064 106.039 24.9419 103.237 24.9419H100.288ZM100.288 34.324V42.2086H103.772C105.28 42.2086 106.446 41.8521 107.271 41.139C108.107 40.4259 108.524 39.448 108.524 38.2052C108.524 35.6177 106.762 34.324 103.237 34.324H100.288ZM127.273 44.5312H115.66V22.6193H126.784V24.9419H118.227V32.2306H126.143V34.5379H118.227V42.2086H127.273V44.5312ZM147.199 44.5312H144.143L140.476 38.3886C140.139 37.8181 139.813 37.3342 139.498 36.9369C139.182 36.5295 138.856 36.1984 138.52 35.9437C138.194 35.689 137.837 35.5057 137.45 35.3936C137.073 35.2714 136.645 35.2102 136.167 35.2102H134.058V44.5312H131.491V22.6193H138.031C138.988 22.6193 139.87 22.7415 140.674 22.986C141.489 23.2203 142.192 23.5819 142.783 24.0709C143.384 24.5599 143.853 25.1711 144.189 25.9045C144.525 26.6278 144.693 27.4784 144.693 28.4563C144.693 29.2204 144.576 29.9233 144.342 30.565C144.117 31.1966 143.791 31.762 143.364 32.2611C142.946 32.7603 142.437 33.1882 141.836 33.5447C141.245 33.891 140.578 34.161 139.834 34.3545V34.4157C140.201 34.5787 140.516 34.7671 140.781 34.981C141.056 35.1848 141.316 35.4293 141.561 35.7145C141.805 35.9997 142.044 36.3257 142.279 36.6924C142.523 37.049 142.793 37.4666 143.089 37.9454L147.199 44.5312ZM134.058 24.9419V32.8876H137.542C138.184 32.8876 138.774 32.7909 139.314 32.5973C139.864 32.4038 140.338 32.1287 140.735 31.7722C141.133 31.4054 141.443 30.9623 141.668 30.4428C141.892 29.9131 142.004 29.3222 142.004 28.6703C142.004 27.4988 141.622 26.587 140.858 25.9351C140.104 25.2729 139.009 24.9419 137.572 24.9419H134.058ZM166.697 44.5312H164.13V34.5379H152.792V44.5312H150.224V22.6193H152.792V32.2306H164.13V22.6193H166.697V44.5312ZM188.471 35.6687C188.471 41.8215 185.695 44.898 180.143 44.898C174.826 44.898 172.167 41.9387 172.167 36.0201V22.6193H174.734V35.852C174.734 40.3444 176.629 42.5906 180.418 42.5906C184.076 42.5906 185.904 40.4208 185.904 36.0812V22.6193H188.471V35.6687ZM193.957 44.5312V22.6193H200.191C202.086 22.6193 203.588 23.0828 204.699 24.0098C205.809 24.9368 206.364 26.1439 206.364 27.6312C206.364 28.874 206.028 29.9538 205.356 30.8706C204.684 31.7875 203.757 32.4394 202.575 32.8265V32.8876C204.052 33.0608 205.234 33.6211 206.12 34.5685C207.006 35.5057 207.449 36.7281 207.449 38.2358C207.449 40.1101 206.777 41.628 205.432 42.7893C204.088 43.9506 202.392 44.5312 200.344 44.5312H193.957ZM196.524 24.9419V32.0167H199.152C200.558 32.0167 201.663 31.6805 202.468 31.0082C203.273 30.3256 203.675 29.3681 203.675 28.1355C203.675 26.0064 202.274 24.9419 199.473 24.9419H196.524ZM196.524 34.324V42.2086H200.008C201.515 42.2086 202.682 41.8521 203.507 41.139C204.342 40.4259 204.76 39.448 204.76 38.2052C204.76 35.6177 202.998 34.324 199.473 34.324H196.524Z" fill="white"/>
</svg>
